<?xml version="1.0" encoding="UTF-8"?>
<svg version="1.1" xmlns="http://www.w3.org/2000/svg" width="96" height="96">
<path d="M0 0 C3.84168096 0.9025636 4.15628401 1.54380027 6.234375 4.7421875 C7.21867962 6.46472059 8.17881255 8.20124041 9.1171875 9.94921875 C9.61476562 10.81353516 10.11234375 11.67785156 10.625 12.56835938 C13.04285342 16.90256091 14.523321 19.72182555 14.2421875 24.76171875 C14.2421875 29.61467562 15.54281405 31.05638683 18.2421875 35.01171875 C22.77055353 41.90275211 22.77055353 41.90275211 22.2421875 45.82421875 C22.2421875 51.48925653 25.15372644 54.50738579 28.4921875 58.9296875 C30.34356489 61.92577815 30.73133742 63.31932616 30.2421875 66.76171875 C29.2421875 67.76171875 29.2421875 67.76171875 27.01733398 67.87524414 C25.57982788 67.86738892 25.57982788 67.86738892 24.11328125 67.859375 C23.07880859 67.85615234 22.04433594 67.85292969 20.97851562 67.84960938 C19.88990234 67.84123047 18.80128906 67.83285156 17.6796875 67.82421875 C16.0409668 67.81745117 16.0409668 67.81745117 14.36914062 67.81054688 C11.66013318 67.79871715 8.9511537 67.78078106 6.2421875 67.76171875 C6.2421875 72.38171875 6.2421875 77.00171875 6.2421875 81.76171875 C2.2821875 81.76171875 -1.6778125 81.76171875 -5.7578125 81.76171875 C-7.14007266 78.99719842 -6.85306637 76.71558245 -6.8203125 73.63671875 C-6.81128906 72.54101562 -6.80226563 71.4453125 -6.79296875 70.31640625 C-6.78136719 69.47335938 -6.76976563 68.6303125 -6.7578125 67.76171875 C-7.419021 67.76695557 -8.08022949 67.77219238 -8.76147461 67.77758789 C-11.73941101 67.79829531 -14.71733232 67.81135887 -17.6953125 67.82421875 C-19.25668945 67.83678711 -19.25668945 67.83678711 -20.84960938 67.84960938 C-21.83896484 67.85283203 -22.82832031 67.85605469 -23.84765625 67.859375 C-25.22232056 67.86723022 -25.22232056 67.86723022 -26.62475586 67.87524414 C-28.7578125 67.76171875 -28.7578125 67.76171875 -29.7578125 66.76171875 C-29.7578125 60.49718402 -27.18975689 57.22798573 -23.25390625 52.484375 C-21.53065949 49.34833586 -21.76359034 47.30374234 -21.92260742 43.80249023 C-21.57586451 39.5085287 -18.42244404 36.34488108 -15.86914062 33.05078125 C-13.3168817 29.49771528 -12.67680675 28.4065502 -13.25 23.84375 C-13.44662231 22.84142334 -13.44662231 22.84142334 -13.6472168 21.81884766 C-13.86250434 17.81440424 -11.50876473 14.73522764 -9.4453125 11.44921875 C-8.81979492 10.39637695 -8.81979492 10.39637695 -8.18164062 9.32226562 C-3.12561955 0.86330852 -3.12561955 0.86330852 0 0 Z " fill="#20A265" transform="translate(47.7578125,6.23828125)"/>
<path d="M0 0 C2.88171448 0.04927676 5.73658367 -0.04009081 8.61645508 -0.14208984 C21.42734016 -0.26564016 21.42734016 -0.26564016 25.7354126 3.05187988 C29.7162927 7.41262404 32.67020845 12.6221018 33.20800781 18.5625 C32.9465332 20.67431641 32.9465332 20.67431641 31.9465332 21.67431641 C30.23880963 21.76145472 28.52754671 21.78131648 26.81762695 21.77197266 C25.26591797 21.76713867 25.26591797 21.76713867 23.68286133 21.76220703 C22.59424805 21.75382812 21.50563477 21.74544922 20.3840332 21.73681641 C18.7453125 21.73004883 18.7453125 21.73004883 17.07348633 21.72314453 C14.36447889 21.7113148 11.6554994 21.69337872 8.9465332 21.67431641 C8.9465332 26.29431641 8.9465332 30.91431641 8.9465332 35.67431641 C4.9865332 35.67431641 1.0265332 35.67431641 -3.0534668 35.67431641 C-4.43572696 32.90979608 -4.14872067 30.6281801 -4.1159668 27.54931641 C-4.10694336 26.45361328 -4.09791992 25.35791016 -4.08862305 24.22900391 C-4.07702148 23.38595703 -4.06541992 22.54291016 -4.0534668 21.67431641 C-4.71467529 21.67955322 -5.37588379 21.68479004 -6.05712891 21.69018555 C-9.03506531 21.71089296 -12.01298661 21.72395653 -14.9909668 21.73681641 C-16.55234375 21.74938477 -16.55234375 21.74938477 -18.14526367 21.76220703 C-19.13461914 21.76542969 -20.12397461 21.76865234 -21.14331055 21.77197266 C-22.51797485 21.77982788 -22.51797485 21.77982788 -23.92041016 21.7878418 C-26.0534668 21.67431641 -26.0534668 21.67431641 -27.0534668 20.67431641 C-26.51182929 14.21153955 -24.82418413 9.51136658 -21.10766602 4.21435547 C-15.07470192 -0.80298734 -7.53728333 -0.1685675 0 0 Z " fill="#0F7B42" transform="translate(45.053466796875,52.32568359375)"/>
<path d="M0 0 C4.96087055 1.76216251 6.50577828 5.78681767 8.91015625 10.265625 C9.40773438 11.12994141 9.9053125 11.99425781 10.41796875 12.88476562 C14.46864967 20.14594502 14.46864967 20.14594502 14.03515625 25.078125 C12.26066031 26.85262094 9.68498364 26.20842572 7.28515625 26.2109375 C6.11984375 26.21222656 4.95453125 26.21351562 3.75390625 26.21484375 C2.52671875 26.21097656 1.29953125 26.20710938 0.03515625 26.203125 C-1.805625 26.20892578 -1.805625 26.20892578 -3.68359375 26.21484375 C-4.84890625 26.21355469 -6.01421875 26.21226563 -7.21484375 26.2109375 C-8.2925 26.20980957 -9.37015625 26.20868164 -10.48046875 26.20751953 C-12.96484375 26.078125 -12.96484375 26.078125 -13.96484375 25.078125 C-13.66571838 18.86116805 -11.39259503 14.4479217 -8.27734375 9.140625 C-7.85517578 8.36138672 -7.43300781 7.58214844 -6.99804688 6.77929688 C-3.87827803 1.41028292 -3.87827803 1.41028292 0 0 Z " fill="#32C481" transform="translate(47.96484375,5.921875)"/>
<path d="M0 0 C4.29 0 8.58 0 13 0 C13 4.62 13 9.24 13 14 C9.04 14 5.08 14 1 14 C-1.02903697 9.94192605 -0.0467948 4.39871123 0 0 Z " fill="#BC4E13" transform="translate(41,74)"/>
</svg>
