<?xml version="1.0" encoding="UTF-8"?>
<svg version="1.1" xmlns="http://www.w3.org/2000/svg" width="64" height="64">
<path d="M0 0 C1.2463623 0.01047363 2.49272461 0.02094727 3.77685547 0.03173828 C4.77143265 0.03598312 4.77143265 0.03598312 5.78610229 0.04031372 C7.9055988 0.05151643 10.02467401 0.07662027 12.14404297 0.10205078 C13.58023479 0.11208051 15.01643322 0.12120637 16.45263672 0.12939453 C19.97490925 0.15145578 23.496935 0.18598585 27.01904297 0.22705078 C27.01904297 1.87705078 27.01904297 3.52705078 27.01904297 5.22705078 C24.70904297 5.55705078 22.39904297 5.88705078 20.01904297 6.22705078 C20.34904297 7.13455078 20.67904297 8.04205078 21.01904297 8.97705078 C22.01904297 12.22705078 22.01904297 12.22705078 22.01904297 16.22705078 C20.69904297 16.22705078 19.37904297 16.22705078 18.01904297 16.22705078 C17.35904297 14.24705078 16.69904297 12.26705078 16.01904297 10.22705078 C14.69904297 10.22705078 13.37904297 10.22705078 12.01904297 10.22705078 C11.68904297 14.18705078 11.35904297 18.14705078 11.01904297 22.22705078 C11.96779297 22.33017578 12.91654297 22.43330078 13.89404297 22.53955078 C17.01904297 23.22705078 17.01904297 23.22705078 19.01904297 26.22705078 C19.27783203 29.10620117 19.27783203 29.10620117 19.28466797 32.57470703 C19.28853516 34.4415918 19.28853516 34.4415918 19.29248047 36.34619141 C19.28474609 37.6475 19.27701172 38.94880859 19.26904297 40.28955078 C19.27677734 41.59472656 19.28451172 42.89990234 19.29248047 44.24462891 C19.28990234 45.48792969 19.28732422 46.73123047 19.28466797 48.01220703 C19.28241211 49.15568604 19.28015625 50.29916504 19.27783203 51.47729492 C19.01904297 54.22705078 19.01904297 54.22705078 17.01904297 56.22705078 C14.98779297 56.48583984 14.98779297 56.48583984 12.51904297 56.49267578 C11.63216797 56.49525391 10.74529297 56.49783203 9.83154297 56.50048828 C8.90341797 56.49275391 7.97529297 56.48501953 7.01904297 56.47705078 C6.09091797 56.48478516 5.16279297 56.49251953 4.20654297 56.50048828 C2.87623047 56.49662109 2.87623047 56.49662109 1.51904297 56.49267578 C0.70435547 56.49041992 -0.11033203 56.48816406 -0.94970703 56.48583984 C-2.98095703 56.22705078 -2.98095703 56.22705078 -4.98095703 54.22705078 C-5.47049372 49.6204694 -5.35136873 44.98164859 -5.35595703 40.35205078 C-5.38044922 39.05912109 -5.40494141 37.76619141 -5.43017578 36.43408203 C-5.43404297 35.19271484 -5.43791016 33.95134766 -5.44189453 32.67236328 C-5.4501123 31.53299316 -5.45833008 30.39362305 -5.46679688 29.21972656 C-4.98095703 26.22705078 -4.98095703 26.22705078 -3.20214844 23.82421875 C-0.98095703 22.22705078 -0.98095703 22.22705078 3.01904297 22.22705078 C2.68904297 18.26705078 2.35904297 14.30705078 2.01904297 10.22705078 C-0.29095703 9.89705078 -2.60095703 9.56705078 -4.98095703 9.22705078 C-5.10595703 5.85205078 -5.10595703 5.85205078 -4.98095703 2.22705078 C-2.98095703 0.22705078 -2.98095703 0.22705078 0 0 Z " fill="#E7E7E7" transform="translate(24.98095703125,4.77294921875)"/>
<path d="M0 0 C7.92 0 15.84 0 24 0 C24.04125 3.58875 24.0825 7.1775 24.125 10.875 C24.14320801 12.00534668 24.16141602 13.13569336 24.18017578 14.30029297 C24.1851709 15.18861816 24.19016602 16.07694336 24.1953125 16.9921875 C24.20578613 17.90339355 24.21625977 18.81459961 24.22705078 19.75341797 C24 22 24 22 22 24 C19.96875 24.25878906 19.96875 24.25878906 17.5 24.265625 C16.613125 24.26820312 15.72625 24.27078125 14.8125 24.2734375 C13.884375 24.26570313 12.95625 24.25796875 12 24.25 C10.6078125 24.26160156 10.6078125 24.26160156 9.1875 24.2734375 C7.8571875 24.26957031 7.8571875 24.26957031 6.5 24.265625 C5.6853125 24.26336914 4.870625 24.26111328 4.03125 24.25878906 C2 24 2 24 0 22 C-0.22705078 19.75341797 -0.22705078 19.75341797 -0.1953125 16.9921875 C-0.19031738 16.1038623 -0.18532227 15.21553711 -0.18017578 14.30029297 C-0.16196777 13.16994629 -0.14375977 12.03959961 -0.125 10.875 C-0.08375 7.28625 -0.0425 3.6975 0 0 Z " fill="#FEC5C3" transform="translate(20,37)"/>
<path d="M0 0 C1.2463623 0.01047363 2.49272461 0.02094727 3.77685547 0.03173828 C4.77143265 0.03598312 4.77143265 0.03598312 5.78610229 0.04031372 C7.9055988 0.05151643 10.02467401 0.07662027 12.14404297 0.10205078 C13.58023479 0.11208051 15.01643322 0.12120637 16.45263672 0.12939453 C19.97490925 0.15145578 23.496935 0.18598585 27.01904297 0.22705078 C27.01904297 1.87705078 27.01904297 3.52705078 27.01904297 5.22705078 C24.70904297 5.55705078 22.39904297 5.88705078 20.01904297 6.22705078 C20.34904297 7.13455078 20.67904297 8.04205078 21.01904297 8.97705078 C22.01904297 12.22705078 22.01904297 12.22705078 22.01904297 16.22705078 C20.69904297 16.22705078 19.37904297 16.22705078 18.01904297 16.22705078 C17.35904297 14.24705078 16.69904297 12.26705078 16.01904297 10.22705078 C14.75447266 10.23865234 13.48990234 10.25025391 12.18701172 10.26220703 C10.52685694 10.27158644 8.86670057 10.28068648 7.20654297 10.28955078 C6.37316406 10.29792969 5.53978516 10.30630859 4.68115234 10.31494141 C3.47749023 10.31977539 3.47749023 10.31977539 2.24951172 10.32470703 C1.51112061 10.32994385 0.77272949 10.33518066 0.01196289 10.34057617 C-1.98095703 10.22705078 -1.98095703 10.22705078 -4.98095703 9.22705078 C-5.10595703 5.85205078 -5.10595703 5.85205078 -4.98095703 2.22705078 C-2.98095703 0.22705078 -2.98095703 0.22705078 0 0 Z " fill="#F7B960" transform="translate(24.98095703125,4.77294921875)"/>
<path d="M0 0 C0.99 0 1.98 0 3 0 C3 1.98 3 3.96 3 6 C3.94875 6.103125 4.8975 6.20625 5.875 6.3125 C9 7 9 7 11 10 C11.125 13.1875 11.125 13.1875 11 16 C7.37 16 3.74 16 0 16 C0 10.72 0 5.44 0 0 Z " fill="#EBEBEB" transform="translate(33,21)"/>
<path d="M0 0 C3.3 0 6.6 0 10 0 C10 1.98 10 3.96 10 6 C6.7 6 3.4 6 0 6 C0 4.02 0 2.04 0 0 Z " fill="#C6C6C6" transform="translate(27,15)"/>
<path d="M0 0 C1.31626692 3.61973402 2 6.09567131 2 10 C0.68 10 -0.64 10 -2 10 C-2.268125 9.030625 -2.53625 8.06125 -2.8125 7.0625 C-3.204375 6.051875 -3.59625 5.04125 -4 4 C-4.99 3.67 -5.98 3.34 -7 3 C-3.375 0 -3.375 0 0 0 Z " fill="#E99D2D" transform="translate(45,11)"/>
<path d="M0 0 C0.66 0 1.32 0 2 0 C2.33 4.62 2.66 9.24 3 14 C1.68 14 0.36 14 -1 14 C-0.67 9.38 -0.34 4.76 0 0 Z " fill="#FFB1B5" transform="translate(31,37)"/>
<path d="M0 0 C1.65 0 3.3 0 5 0 C5 1.65 5 3.3 5 5 C3.35 5 1.7 5 0 5 C0 3.35 0 1.7 0 0 Z " fill="#E69A2C" transform="translate(47,5)"/>
</svg>
